<svg width="32" height="31" viewBox="0 0 32 31" fill="none" xmlns="http://www.w3.org/2000/svg">
<path fill-rule="evenodd" clip-rule="evenodd" d="M28.866 11.1531C28.944 11.3912 29.5668 11.8937 29.9411 12.1949L29.9433 12.1967C30.8594 12.937 32 13.8588 32 15.2664C32 16.6871 30.8429 17.6368 29.912 18.3998L29.893 18.4154C29.5248 18.7182 28.9281 19.2087 28.8501 19.4324C28.7776 19.6687 28.9776 20.4538 29.098 20.9264L29.0988 20.9293C29.4068 22.1382 29.7559 23.5102 28.9427 24.6191C28.1363 25.7205 26.7333 25.8157 25.4948 25.8998L25.4873 25.9003C24.9901 25.9332 24.1583 25.9885 23.9481 26.1423C23.7374 26.2963 23.432 27.0432 23.2434 27.5046L23.234 27.5274L23.2312 27.5342C22.7651 28.6769 22.2383 29.9683 20.9476 30.4055C19.6382 30.8515 18.4037 30.0705 17.4133 29.444L17.405 29.4387C16.958 29.1546 16.281 28.7257 15.9993 28.7257C15.714 28.7257 15.0374 29.151 14.5813 29.4377L14.5672 29.4466L14.5508 29.4568C13.7273 29.9725 12.8151 30.5437 11.8273 30.5437C11.576 30.5437 11.3181 30.5068 11.0576 30.4213C9.75962 30.0045 9.22926 28.7005 8.76129 27.5499L8.76069 27.5484L8.76014 27.5471C8.57102 27.0826 8.25667 26.3105 8.04794 26.1594C7.84551 26.0128 7.06841 25.9588 6.574 25.9245C6.55809 25.9234 6.54248 25.9223 6.52719 25.9212L6.52433 25.9211C5.34394 25.8421 3.87783 25.7441 3.04406 24.6479C2.18957 23.5207 2.56443 22.0865 2.86574 20.9336L2.86688 20.9293C2.99119 20.4596 3.19744 19.6731 3.11813 19.431C3.03744 19.1863 2.44106 18.6931 2.04569 18.3668C1.13462 17.6144 0 16.6765 0 15.2651C0 13.8457 1.15496 12.8978 2.08427 12.1351L2.08681 12.133L2.09418 12.127C2.4626 11.8251 3.07121 11.3264 3.15 11.1004C3.22274 10.8666 3.0251 10.0935 2.90273 9.61489L2.89613 9.58903C2.58669 8.39069 2.23631 7.03318 3.01781 5.93219C3.81339 4.81219 5.22839 4.71687 6.47745 4.63273L6.47975 4.63257C6.97962 4.59968 7.81669 4.54441 8.02563 4.39054C8.2382 4.23517 8.54724 3.47734 8.73543 3.01588L8.73969 3.00543L8.74468 2.99321C9.21026 1.85442 9.73736 0.565147 11.0274 0.128651C12.3431 -0.315996 13.5914 0.483772 14.5898 1.12967L14.5969 1.13428C15.0492 1.4263 15.7245 1.86235 15.9994 1.86235C16.284 1.86235 16.9589 1.43937 17.4163 1.15268L17.4342 1.14148L17.4351 1.14092C18.4729 0.487325 19.6522 -0.255322 20.9424 0.164151C22.2397 0.579826 22.7712 1.88473 23.2381 3.03571C23.4271 3.50006 23.7432 4.27484 23.9534 4.4261C24.1562 4.57257 24.9456 4.62746 25.4394 4.66179L25.4742 4.66422L25.4772 4.66442C26.6615 4.74334 28.1341 4.84148 28.9533 5.95203C29.7765 7.07061 29.41 8.49135 29.1153 9.634L29.1146 9.63647C28.9916 10.11 28.7867 10.9058 28.866 11.1531Z" fill="#1ED69E"/>
<path d="M21.913 10.31C21.3497 9.84168 20.5179 9.91797 20.0511 10.4744L14.1547 17.4869L11.6461 14.9929C11.1291 14.4785 10.2933 14.4785 9.7763 14.9929C9.25924 15.5072 9.25924 16.3386 9.7763 16.8528L13.3071 20.365C13.5543 20.6136 13.8916 20.7504 14.242 20.7504C14.2605 20.7504 14.2804 20.7504 14.2989 20.7478C14.6717 20.732 15.0169 20.561 15.2549 20.2782L22.0782 12.162C22.5464 11.6044 22.4737 10.7756 21.913 10.31Z" fill="white"/>
</svg>
