<svg width="183" height="30" viewBox="0 0 183 30" fill="none" xmlns="http://www.w3.org/2000/svg">
<path d="M25.7758 17.2296C22.8726 16.3565 20.1049 17.1537 17.3372 17.8559C16.1566 18.1406 14.9759 18.4443 13.776 18.6531C12.2082 18.9188 11.5115 18.4064 10.6018 17.1537C8.35668 14.0409 5.99543 11.0041 3.69224 7.94824C2.80193 6.79045 1.87292 5.65164 1.02132 4.47486C0.634225 3.94341 0.324551 3.31707 0.131006 2.7097C-0.23673 1.57089 0.169716 0.925557 1.35034 0.564933C4.54384 -0.47898 7.62121 -0.00447429 10.6018 1.40006C13.9501 2.95644 16.7372 5.23407 19.1952 7.8913C21.3436 10.1879 23.3371 12.6364 25.3113 15.0848C25.7177 15.5973 25.7951 16.3755 26.0274 17.0398C25.95 17.0967 25.8532 17.1537 25.7758 17.2296Z" fill="#F8F9F9"/>
<path d="M27.1692 17.0208C27.0531 16.1288 27.4015 15.3506 28.0015 14.5724C31.1563 10.5486 34.4465 6.65763 38.6465 3.62079C41.1819 1.77971 43.9303 0.261291 47.1431 0.0904687C48.7495 0.0145477 50.3947 0.375172 51.9818 0.659876C52.8527 0.811718 53.2011 1.57093 52.9301 2.34912C52.5624 3.33609 52.1172 4.36102 51.4785 5.19615C49.6979 7.51174 47.7431 9.71345 45.9431 12.029C44.6657 13.6803 43.4851 15.4265 42.3626 17.1917C41.569 18.4064 40.8335 18.8999 39.3626 18.6531C38.1626 18.4633 36.982 18.1407 35.782 17.8749C34.5627 17.5902 33.3627 17.1727 32.124 17.0588C30.4982 16.9259 28.8724 17.0208 27.1692 17.0208Z" fill="#F8F9F9"/>
<path d="M40.0206 23.6069C38.84 24.3281 39.111 25.391 39.4013 26.5109C39.0916 26.5109 38.84 26.5298 38.5884 26.5109C37.8336 26.416 37.4658 26.6247 37.4465 27.4599C37.4465 27.8015 36.982 28.314 36.6336 28.4089C35.8401 28.6556 35.4143 29.0542 35.4336 29.9842C34.6207 29.4908 33.9046 29.282 33.1691 29.9653C33.0724 30.0602 32.4917 29.8324 32.3175 29.6046C31.524 28.5987 30.7692 27.5927 30.0724 26.5298C28.8918 24.7647 27.7692 22.9616 26.5305 21.0066C25.5821 22.4111 24.7306 23.6828 23.879 24.9545C22.8532 26.4729 21.8274 28.0103 20.7822 29.5097C20.4532 29.9842 20.0855 30.193 19.4274 29.7755C19.0016 29.5097 18.2661 29.7185 17.6081 29.7185C17.5694 28.9973 17.0855 28.5607 16.2146 28.3709C15.9436 28.314 15.5371 27.8395 15.5565 27.5927C15.6339 26.4919 15.0146 26.416 14.163 26.5109C14.0081 26.5298 13.8533 26.5109 13.621 26.5109C13.9114 25.372 14.1823 24.2712 13.0211 23.5879C13.1565 23.2273 13.4081 22.8667 13.3307 22.7338C12.5178 21.6329 14.0275 20.9497 13.8727 19.9057C13.8339 19.5641 14.8791 18.8049 15.5178 18.672C18.421 18.0647 21.3048 17.1156 24.3628 17.4003C25.2918 17.4952 26.1821 17.5522 26.4918 18.7859C26.8596 17.3814 27.9628 17.4763 29.0079 17.3814C31.3305 17.1916 33.5369 17.8369 35.7626 18.2734C36.9046 18.5012 38.0852 18.5581 38.8013 19.64C38.9755 19.9057 39.0916 20.2284 39.2077 20.5321C39.2658 20.6839 39.2465 20.8927 39.3432 20.9686C39.9432 21.5001 40.0787 22.0695 39.6335 22.7907C39.5755 22.9236 39.8464 23.2463 40.0206 23.6069Z" fill="#F8F9F9"/>
<path d="M182.357 28.9946C181.621 28.9946 180.982 29.0515 180.363 28.9566C180.111 28.9186 179.802 28.596 179.686 28.3302C179.008 26.8308 178.37 25.3124 177.789 23.775C177.576 23.2435 177.305 23.0727 176.744 23.0917C174.17 23.1107 171.576 23.1107 169.002 23.1107C168.692 23.1107 168.363 23.1107 167.957 23.1107C168.17 22.5033 168.266 21.9529 168.537 21.5163C168.692 21.2696 169.157 21.1178 169.466 21.1178C171.847 21.0798 174.228 21.0988 176.782 21.0988C174.847 16.4107 172.97 11.8554 170.995 7.07238C170.763 7.62281 170.608 7.94547 170.473 8.28712C168.808 12.3299 167.163 16.3537 165.499 20.3965C164.492 22.8829 163.428 25.3503 162.499 27.8747C162.17 28.7668 161.744 29.1844 160.776 29.0135C160.447 28.9566 160.099 29.0135 159.634 29.0135C159.789 28.596 159.867 28.2923 159.983 28.0266C163.079 20.6053 166.176 13.203 169.234 5.78173C169.525 5.07946 169.873 4.75679 170.647 4.88965C170.899 4.92762 171.17 4.92762 171.421 4.88965C172.118 4.79475 172.428 5.07946 172.679 5.72478C174.576 10.356 176.511 14.9492 178.447 19.5614C179.647 22.4274 180.828 25.2934 182.008 28.1404C182.124 28.3682 182.221 28.6339 182.357 28.9946Z" fill="#F8F9F9"/>
<path d="M83.9193 23.1297C84.1322 22.5223 84.229 21.9719 84.5 21.5353C84.6548 21.3076 85.1193 21.1367 85.4483 21.1367C87.8289 21.0988 90.2095 21.1178 92.7643 21.1178C90.8289 16.4296 88.9515 11.8744 86.9773 7.09136C86.7451 7.64179 86.5902 7.96445 86.4548 8.3061C84.7903 12.3489 83.1451 16.3727 81.4806 20.4155C80.4742 22.9019 79.4097 25.3693 78.4807 27.8937C78.1517 28.7858 77.7065 29.1843 76.7581 29.0325C76.4291 28.9756 76.0807 29.0325 75.5775 29.0325C75.984 28.0455 76.3323 27.2104 76.6807 26.3753C79.5452 19.5234 82.4097 12.6526 85.2354 5.78173C85.5257 5.07946 85.8935 4.75679 86.6483 4.88965C86.8999 4.92762 87.1709 4.92762 87.4225 4.88965C88.1193 4.79475 88.4289 5.09844 88.6805 5.72478C90.7128 10.6596 92.7837 15.5945 94.8353 20.5294C95.8998 23.0727 96.9449 25.6161 98.0094 28.1594C98.1062 28.4062 98.203 28.6719 98.3384 29.0325C97.6997 29.0325 97.1578 28.9945 96.6353 29.0515C96.074 29.1084 95.8417 28.8617 95.6482 28.3872C95.0288 26.8688 94.3514 25.3693 93.7708 23.8319C93.5579 23.2815 93.2676 23.1486 92.7063 23.1486C90.1321 23.1676 87.5386 23.1676 84.9645 23.1676C84.6548 23.1297 84.3451 23.1297 83.9193 23.1297Z" fill="#F8F9F9"/>
<path d="M137.59 28.8906C137.512 28.9475 137.493 28.9665 137.473 28.9665C135.306 29.1563 135.306 29.1563 134.473 27.2014C133.99 26.0625 133.486 24.9427 133.061 23.7849C132.867 23.2345 132.557 23.1016 131.996 23.1016C129.422 23.1206 126.828 23.1206 124.254 23.1206C123.945 23.1206 123.635 23.1206 123.209 23.1206C123.422 22.4943 123.519 21.9438 123.79 21.5073C123.945 21.2795 124.409 21.1087 124.738 21.1087C127.119 21.0707 129.499 21.0897 132.054 21.0897C130.119 16.4016 128.241 11.8463 126.286 7.10129C126.015 7.6707 125.841 8.06928 125.667 8.46787C124.041 12.4158 122.416 16.3636 120.809 20.3115C119.764 22.8549 118.719 25.3982 117.751 27.9606C117.441 28.7957 117.035 29.1373 116.164 29.0045C115.816 28.9475 115.467 29.0045 114.945 29.0045C115.061 28.6439 115.119 28.3591 115.235 28.0934C118.351 20.6152 121.487 13.156 124.583 5.67777C124.854 5.03245 125.183 4.84264 125.861 4.86162C127.622 4.89958 127.622 4.86162 128.261 6.418C130.177 10.9922 132.073 15.5855 133.99 20.1597C135.093 22.8169 136.215 25.4742 137.319 28.1314C137.415 28.3781 137.512 28.6439 137.59 28.8906Z" fill="#F8F9F9"/>
<path d="M107.842 28.8704C107.048 28.8704 106.39 28.8704 105.596 28.8704C105.596 21.525 105.596 14.1796 105.596 6.75838C102.906 6.75838 100.332 6.75838 97.6805 6.75838C97.6805 6.11305 97.6805 5.52466 97.6805 4.86035C103.661 4.86035 109.68 4.86035 115.758 4.86035C115.758 5.42976 115.758 6.01815 115.758 6.68246C113.164 6.68246 110.571 6.68246 107.842 6.68246C107.842 14.1227 107.842 21.4681 107.842 28.8704Z" fill="#F8F9F9"/>
<path d="M142.176 4.86035C142.834 4.86035 143.473 4.86035 144.189 4.86035C144.189 12.2247 144.189 19.551 144.189 26.9913C148.196 26.9913 152.105 26.9913 156.092 26.9913C156.092 27.6746 156.092 28.263 156.092 28.8893C151.447 28.8893 146.86 28.8893 142.176 28.8893C142.176 20.9366 142.176 12.9649 142.176 4.86035Z" fill="#F8F9F9"/>
</svg>
