<svg width="40" height="28" viewBox="0 0 40 28" fill="none" xmlns="http://www.w3.org/2000/svg">
<path d="M39.2982 12.1053L27.7193 0.526316C27.0175 -0.175439 25.614 -0.175439 24.9123 0.526316C23.8596 1.22807 23.8596 2.63158 24.9123 3.33333L32.9825 11.4035H2.10526C1.05263 11.4035 0 12.4561 0 13.5088C0 14.5614 1.05263 15.614 2.10526 15.614H32.9825L24.9123 23.6842C23.8596 24.386 23.8596 25.7895 24.9123 26.4912C25.614 27.193 27.0175 27.193 27.7193 26.4912L39.2982 14.9123C39.6491 14.5614 40 13.8596 40 13.5088C39.6491 12.807 39.6491 12.4561 39.2982 12.1053Z" fill="#F83633"/>
</svg>
